<?xml version="1.0" encoding="UTF-8" standalone="no"?><!DOCTYPE svg PUBLIC "-//W3C//DTD SVG 1.1//EN" "http://www.w3.org/Graphics/SVG/1.1/DTD/svg11.dtd"><svg width="100%" height="100%" viewBox="0 0 1013 759" version="1.1" xmlns="http://www.w3.org/2000/svg" xmlns:xlink="http://www.w3.org/1999/xlink" xml:space="preserve" xmlns:serif="http://www.serif.com/" style="fill-rule:evenodd;clip-rule:evenodd;stroke-miterlimit:10;"><rect id="Vertical" x="2.693" y="0" width="1008.02" height="757.471" style="fill:none;"/><clipPath id="_clip1"><rect x="2.693" y="0" width="1008.02" height="757.471"/></clipPath><g clip-path="url(#_clip1)"><g id="Layer-1" serif:id="Layer 1"><circle cx="506.702" cy="244.442" r="244.442" style="fill:#0891d1;"/><path d="M688.643,243.555c-0,-100.416 -81.526,-181.942 -181.942,-181.942c-100.416,0 -181.942,81.526 -181.942,181.942c0,100.416 81.526,181.942 181.942,181.942c100.416,-0 181.942,-81.526 181.942,-181.942Z" style="fill:none;stroke:#fff;stroke-width:25px;"/><path d="M656.701,199.357c19.563,6.771 40.917,-3.604 47.696,-23.175c6.771,-19.558 -3.621,-40.929 -23.183,-47.692c-19.567,-6.779 -40.925,3.605 -47.696,23.18c-6.763,19.57 3.612,40.925 23.183,47.687" style="fill:#fff;fill-rule:nonzero;"/><path d="M668.859,163.973l-125.295,104.342" style="fill:none;fill-rule:nonzero;stroke:#fff;stroke-width:25px;"/><path d="M585.526,379.077c-1.854,20.621 13.388,38.833 33.992,40.692c20.629,1.846 38.858,-13.388 40.7,-34.009c1.846,-20.616 -13.379,-38.837 -34,-40.691c-20.634,-1.842 -38.854,13.379 -40.692,34.008" style="fill:#fff;fill-rule:nonzero;"/><path d="M622.798,382.34l-79.237,-114.025" style="fill:none;fill-rule:nonzero;stroke:#fff;stroke-width:25px;"/><path d="M512.089,288.696c11.237,17.375 34.458,22.346 51.845,11.1c17.384,-11.237 22.359,-34.471 11.1,-51.846c-11.245,-17.391 -34.47,-22.362 -51.854,-11.108c-17.375,11.254 -22.354,34.471 -11.091,51.854" style="fill:#fff;fill-rule:nonzero;"/><path d="M350.402,255.884c-17.775,-10.588 -40.787,-4.775 -51.408,13.012c-10.587,17.784 -4.783,40.804 13.013,51.4c17.783,10.621 40.812,4.784 51.408,-13.012c10.604,-17.792 4.783,-40.804 -13.013,-51.4" style="fill:#fff;fill-rule:nonzero;"/><path d="M331.302,288.062l212.259,-19.746" style="fill:none;fill-rule:nonzero;stroke:#fff;stroke-width:25px;"/><path d="M100.866,606.62c-2.062,-2.266 -21.612,-14 -39.108,-14c-11.521,0 -17.904,4.117 -17.904,12.15c-0,9.875 10.912,12.546 30.462,17.905c27.988,7.616 45.688,17.079 45.688,44.245c-0,33.138 -26.755,44.655 -54.95,44.655c-21.4,-0 -45.071,-6.78 -62.363,-18.1l14.817,-29.446c2.683,2.891 25.729,17.091 48.166,17.091c12.142,0 17.905,-3.912 17.905,-10.908c-0,-10.912 -15.025,-13.583 -35.196,-19.754c-26.959,-8.238 -39.513,-18.321 -39.513,-40.333c0,-30.88 24.696,-47.55 53.917,-47.55c20.792,-0 39.933,8.433 52.692,16.05l-14.613,27.995Z" style="fill:#0891d1;fill-rule:nonzero;"/><path d="M139.428,726.188c5.967,1.859 11.321,2.679 15.021,2.679c7,0 11.321,-5.145 14.404,-18.933l-40.958,-108.054l33.758,-0l25.317,79.858l21.608,-79.858l30.671,-0l-41.375,125.55c-5.971,18.112 -21.4,29.837 -40.337,30.042c-5.967,-0 -12.142,-0.825 -18.109,-3.084l0,-28.2Z" style="fill:#0891d1;fill-rule:nonzero;"/><path d="M359.782,709.933l-32.93,-0l0,-60.713c0,-14.2 -5.966,-20.375 -14.612,-20.375c-9.054,0 -19.967,8.029 -23.875,19.142l-0,61.945l-32.921,0l0,-108.054l29.633,0l0,18.121c8.025,-12.762 23.25,-20.175 41.984,-20.175c28.196,0 32.721,22.85 32.721,40.95l-0,69.158Z" style="fill:#0891d1;fill-rule:nonzero;"/><path d="M436.482,599.825c24.7,-0 42.2,11.729 50.625,28.608l-32.095,9.671c-4.113,-6.587 -10.705,-10.279 -18.73,-10.279c-13.587,-0 -24.083,11.104 -24.083,27.979c0,17.079 10.7,28.408 24.083,28.408c8.234,0 15.642,-4.333 18.93,-10.708l32.112,9.883c-8.029,16.671 -25.929,28.605 -50.842,28.605c-36.425,-0 -58.037,-26.342 -58.037,-56.188c-0,-29.842 21.408,-55.979 58.037,-55.979" style="fill:#0891d1;fill-rule:nonzero;"/><path d="M575.341,704.175c-9.054,3.912 -21.2,7.817 -33.137,7.817c-16.259,-0 -30.046,-7.817 -30.046,-28.817l-0,-56.388l-13.788,0l0,-24.908l13.788,0l-0,-34.371l32.929,0l-0,34.371l22.025,0l-0,24.908l-22.025,0l-0,45.063c-0,7.217 4.121,10.092 9.675,10.092c4.733,-0 10.292,-2.063 14.408,-3.905l6.171,26.138Z" style="fill:#0891d1;fill-rule:nonzero;"/><path d="M695.67,709.933l-32.929,-0l0,-60.713c0,-13.996 -6.175,-20.375 -15.637,-20.375c-7.821,0 -18.73,7.612 -22.846,19.142l-0,61.945l-32.925,0l-0,-150.241l32.925,-0l-0,60.308c7.821,-12.762 21.612,-20.175 37.462,-20.175c29.013,0 33.95,22.229 33.95,40.95l0,69.158Z" style="fill:#0891d1;fill-rule:nonzero;"/><path d="M717.077,601.879l32.933,0l-0,108.054l-32.933,0l-0,-108.054Zm-0,-42.187l32.933,-0l-0,29.841l-32.933,0l-0,-29.841Z" style="fill:#0891d1;fill-rule:nonzero;"/><path d="M876.578,709.933l-32.925,-0l0,-60.713c0,-14.2 -5.966,-20.375 -14.612,-20.375c-9.054,0 -19.967,8.029 -23.879,19.142l-0,61.945l-32.925,0l-0,-108.054l29.637,0l0,18.121c8.029,-12.762 23.254,-20.175 41.983,-20.175c28.196,0 32.721,22.85 32.721,40.95l0,69.158Z" style="fill:#0891d1;fill-rule:nonzero;"/><path d="M977.779,669.19l-0,-22.646c-4.325,-11.317 -14.405,-18.721 -24.492,-18.721c-14.196,-0 -24.079,13.779 -24.079,28.804c-0,15.85 10.912,27.583 25.725,27.583c10.083,0 18.316,-6.175 22.846,-15.02m-82.121,-13.388c-0,-31.683 20.583,-55.975 50.221,-55.975c16.054,0 28.808,7.408 36.22,19.763l0,-17.709l28.609,0l-0,100.642c-0,32.925 -25.725,53.308 -62.567,53.308c-23.254,0 -39.312,-7.821 -51.454,-21.612l17.496,-17.904c8.029,9.05 20.583,14.816 33.958,14.816c15.846,0 29.638,-8.229 29.638,-28.608l-0,-10.496c-6.584,11.933 -20.171,18.321 -34.367,18.321c-28.404,-0 -47.754,-24.496 -47.754,-54.546" style="fill:#0891d1;fill-rule:nonzero;"/></g></g></svg>