<?xml version="1.0" encoding="UTF-8" standalone="no"?><!DOCTYPE svg PUBLIC "-//W3C//DTD SVG 1.1//EN" "http://www.w3.org/Graphics/SVG/1.1/DTD/svg11.dtd"><svg width="100%" height="100%" viewBox="0 0 1792 492" version="1.1" xmlns="http://www.w3.org/2000/svg" xmlns:xlink="http://www.w3.org/1999/xlink" xml:space="preserve" xmlns:serif="http://www.serif.com/" style="fill-rule:evenodd;clip-rule:evenodd;stroke-miterlimit:10;"><rect id="Horizontal" x="0" y="0" width="1787.58" height="488.883" style="fill:none;"/><clipPath id="_clip1"><rect id="Horizontal1" serif:id="Horizontal" x="0" y="0" width="1787.58" height="488.883"/></clipPath><g clip-path="url(#_clip1)"><g id="Layer-1" serif:id="Layer 1"><circle cx="244.442" cy="244.442" r="244.442" style="fill:#0891d1;"/><path d="M426.383,243.555c0,-100.417 -81.525,-181.942 -181.941,-181.942c-100.417,-0 -181.942,81.525 -181.942,181.942c0,100.416 81.525,181.941 181.942,181.941c100.416,0 181.941,-81.525 181.941,-181.941Z" style="fill:none;stroke:#fff;stroke-width:25px;"/><path d="M394.442,199.357c19.562,6.771 40.916,-3.604 47.696,-23.175c6.77,-19.558 -3.621,-40.929 -23.184,-47.692c-19.566,-6.779 -40.925,3.605 -47.696,23.18c-6.762,19.57 3.613,40.925 23.184,47.687" style="fill:#fff;fill-rule:nonzero;"/><path d="M406.6,163.973l-125.296,104.342" style="fill:none;fill-rule:nonzero;stroke:#fff;stroke-width:25px;"/><path d="M323.267,379.077c-1.854,20.621 13.387,38.833 33.991,40.692c20.63,1.846 38.859,-13.388 40.7,-34.009c1.846,-20.616 -13.379,-38.837 -34,-40.691c-20.633,-1.842 -38.854,13.379 -40.691,34.008" style="fill:#fff;fill-rule:nonzero;"/><path d="M360.539,382.34l-79.238,-114.025" style="fill:none;fill-rule:nonzero;stroke:#fff;stroke-width:25px;"/><path d="M249.829,288.696c11.238,17.375 34.459,22.346 51.846,11.1c17.383,-11.237 22.358,-34.471 11.1,-51.846c-11.246,-17.391 -34.471,-22.362 -51.854,-11.108c-17.375,11.254 -22.354,34.471 -11.092,51.854" style="fill:#fff;fill-rule:nonzero;"/><path d="M88.143,255.884c-17.775,-10.588 -40.788,-4.775 -51.408,13.012c-10.588,17.784 -4.784,40.804 13.012,51.4c17.783,10.621 40.813,4.784 51.408,-13.012c10.605,-17.792 4.784,-40.804 -13.012,-51.4" style="fill:#fff;fill-rule:nonzero;"/><path d="M69.043,288.061l212.258,-19.746" style="fill:none;fill-rule:nonzero;stroke:#fff;stroke-width:25px;"/><path d="M682.426,209.265c-2.504,-2.75 -26.25,-17 -47.5,-17c-14,0 -21.75,4.996 -21.75,14.746c-0,12.004 13.254,15.25 37,21.754c34,9.242 55.496,20.746 55.496,53.742c-0,40.25 -32.5,54.254 -66.746,54.254c-26,-0 -54.746,-8.254 -75.746,-22.004l17.996,-35.75c3.25,3.5 31.25,20.754 58.5,20.754c14.75,-0 21.75,-4.754 21.75,-13.25c-0,-13.25 -18.25,-16.504 -42.75,-24c-32.746,-10 -47.996,-22.25 -47.996,-48.996c0,-37.5 29.996,-57.75 65.496,-57.75c25.25,0 48.5,10.246 64,19.5l-17.75,34Z" style="fill:#0891d1;fill-rule:nonzero;"/><path d="M729.264,354.508c7.246,2.246 13.75,3.246 18.25,3.246c8.5,0 13.75,-6.25 17.496,-22.996l-49.746,-131.246l40.996,0l30.75,96.996l26.25,-96.996l37.25,0l-50.25,152.492c-7.25,22.004 -26,36.254 -49,36.5c-7.246,0 -14.75,-1 -21.996,-3.75l0,-34.246Z" style="fill:#0891d1;fill-rule:nonzero;"/><path d="M996.92,334.758l-40,-0l-0,-73.746c-0,-17.25 -7.246,-24.755 -17.746,-24.755c-11,0 -24.25,9.75 -28.996,23.25l-0,75.25l-40,0l-0,-131.245l36,-0l-0,22c9.75,-15.496 28.246,-24.5 50.996,-24.5c34.25,-0 39.746,27.754 39.746,49.75l-0,83.995Z" style="fill:#0891d1;fill-rule:nonzero;"/><path d="M1090.09,201.013c29.996,-0 51.25,14.25 61.496,34.75l-39,11.75c-4.996,-8 -12.996,-12.5 -22.75,-12.5c-16.496,-0 -29.246,13.496 -29.246,33.996c0,20.75 13,34.504 29.246,34.504c10.004,-0 19.004,-5.254 23.004,-13.004l38.996,12c-9.75,20.25 -31.496,34.746 -61.746,34.746c-44.25,-0 -70.496,-31.992 -70.496,-68.246c0,-36.25 25.996,-67.996 70.496,-67.996" style="fill:#0891d1;fill-rule:nonzero;"/><path d="M1258.75,327.759c-11,4.75 -25.75,9.496 -40.246,9.496c-19.75,-0 -36.5,-9.496 -36.5,-34.996l-0,-68.5l-16.746,-0l-0,-30.246l16.746,-0l-0,-41.75l40,-0l-0,41.75l26.75,-0l-0,30.246l-26.75,-0l-0,54.75c-0,8.754 5,12.254 11.75,12.254c5.75,-0 12.5,-2.504 17.496,-4.754l7.5,31.75Z" style="fill:#0891d1;fill-rule:nonzero;"/><path d="M1404.91,334.757l-40,0l0,-73.745c0,-17 -7.495,-24.755 -18.995,-24.755c-9.496,0 -22.75,9.255 -27.746,23.25l-0,75.25l-40,0l-0,-182.491l40,-0l-0,73.246c9.496,-15.496 26.246,-24.5 45.496,-24.5c35.25,-0 41.245,27 41.245,49.75l0,83.995Z" style="fill:#0891d1;fill-rule:nonzero;"/><path d="M1430.92,203.512l40,0l-0,131.246l-40,0l-0,-131.246Zm-0,-51.245l40,-0l-0,36.245l-40,0l-0,-36.245Z" style="fill:#0891d1;fill-rule:nonzero;"/><path d="M1624.66,334.758l-40,-0l0,-73.746c0,-17.25 -7.246,-24.755 -17.746,-24.755c-11,0 -24.25,9.75 -28.995,23.25l-0,75.25l-40,0l-0,-131.245l36,-0l-0,22c9.75,-15.496 28.245,-24.5 50.995,-24.5c34.25,-0 39.746,27.754 39.746,49.75l0,83.995Z" style="fill:#0891d1;fill-rule:nonzero;"/><path d="M1747.58,285.258l-0,-27.5c-5.25,-13.746 -17.5,-22.746 -29.75,-22.746c-17.246,0 -29.246,16.75 -29.246,34.996c-0,19.254 13.25,33.504 31.246,33.504c12.25,0 22.25,-7.504 27.75,-18.254m-99.746,-16.246c-0,-38.5 25,-68 60.996,-68c19.5,0 35,9 44,24l-0,-21.5l34.75,0l-0,122.246c-0,39.996 -31.25,64.75 -76,64.75c-28.246,-0 -47.75,-9.504 -62.496,-26.25l21.25,-21.75c9.75,11 24.996,18 41.246,18c19.25,-0 36,-10 36,-34.75l-0,-12.75c-8,14.5 -24.5,22.25 -41.75,22.25c-34.5,-0 -57.996,-29.75 -57.996,-66.246" style="fill:#0891d1;fill-rule:nonzero;"/></g></g></svg>