<?xml version="1.0" encoding="UTF-8" standalone="no"?><!DOCTYPE svg PUBLIC "-//W3C//DTD SVG 1.1//EN" "http://www.w3.org/Graphics/SVG/1.1/DTD/svg11.dtd"><svg width="100%" height="100%" viewBox="0 0 492 492" version="1.1" xmlns="http://www.w3.org/2000/svg" xmlns:xlink="http://www.w3.org/1999/xlink" xml:space="preserve" xmlns:serif="http://www.serif.com/" style="fill-rule:evenodd;clip-rule:evenodd;stroke-miterlimit:10;"><rect id="Mark" x="1.22" y="0" width="488.883" height="488.883" style="fill:none;"/><clipPath id="_clip1"><rect x="1.22" y="0" width="488.883" height="488.883"/></clipPath><g clip-path="url(#_clip1)"><g id="Layer-1" serif:id="Layer 1"><circle cx="245.661" cy="244.442" r="244.442" style="fill:#0891d1;"/><path d="M427.603,243.555c0,-100.417 -81.525,-181.942 -181.942,-181.942c-100.416,-0 -181.941,81.525 -181.941,181.942c-0,100.416 81.525,181.941 181.941,181.941c100.417,0 181.942,-81.525 181.942,-181.941Z" style="fill:none;stroke:#fff;stroke-width:25px;"/><path d="M395.661,199.357c19.563,6.771 40.917,-3.604 47.696,-23.175c6.771,-19.558 -3.621,-40.929 -23.183,-47.692c-19.567,-6.779 -40.925,3.605 -47.696,23.18c-6.762,19.57 3.613,40.925 23.183,47.687" style="fill:#fff;fill-rule:nonzero;"/><path d="M407.82,163.973l-125.296,104.342" style="fill:none;fill-rule:nonzero;stroke:#fff;stroke-width:25px;"/><path d="M324.486,379.077c-1.854,20.621 13.388,38.833 33.992,40.692c20.629,1.846 38.858,-13.388 40.7,-34.009c1.846,-20.616 -13.379,-38.837 -34,-40.691c-20.633,-1.842 -38.854,13.379 -40.692,34.008" style="fill:#fff;fill-rule:nonzero;"/><path d="M361.759,382.34l-79.238,-114.025" style="fill:none;fill-rule:nonzero;stroke:#fff;stroke-width:25px;"/><path d="M251.049,288.696c11.237,17.375 34.458,22.346 51.846,11.1c17.383,-11.237 22.358,-34.471 11.1,-51.846c-11.246,-17.391 -34.471,-22.362 -51.854,-11.108c-17.375,11.254 -22.355,34.471 -11.092,51.854" style="fill:#fff;fill-rule:nonzero;"/><path d="M89.363,255.884c-17.775,-10.588 -40.788,-4.775 -51.409,13.012c-10.587,17.784 -4.783,40.804 13.013,51.4c17.783,10.621 40.812,4.784 51.408,-13.012c10.604,-17.792 4.784,-40.804 -13.012,-51.4" style="fill:#fff;fill-rule:nonzero;"/><path d="M70.263,288.061l212.258,-19.746" style="fill:none;fill-rule:nonzero;stroke:#fff;stroke-width:25px;"/></g></g></svg>